<?xml version="1.0" standalone="no"?><!DOCTYPE svg PUBLIC "-//W3C//DTD SVG 1.1//EN" "http://www.w3.org/Graphics/SVG/1.1/DTD/svg11.dtd"><svg t="1664520260456" class="icon" viewBox="0 0 1024 1024" version="1.1" xmlns="http://www.w3.org/2000/svg" p-id="923" xmlns:xlink="http://www.w3.org/1999/xlink" width="200" height="200"><path d="M698.34 870.31H265.61c-53.54 0.22-104.95-20.99-142.78-58.82S63.78 722.25 64 668.7c0-112.03 89.58-201.61 201.61-201.61h492.67c29.75 0.34 58.48-11.45 79.47-32.44 21.1-21.1 32.78-49.73 32.44-79.48 0.34-29.75-11.45-58.48-32.44-79.48-21.1-21.1-49.73-32.78-79.47-32.44H325.66c-17.74 53.1-66.9 89.58-127.18 89.58-76.11 0-134.37-58.26-134.37-134.37S122.37 64.12 198.48 64.12c60.28 0 109.45 36.59 127.18 89.58h432.73c53.54-0.22 104.95 20.99 142.78 58.82S960.22 301.75 960 355.3c0.22 53.54-20.99 104.96-58.82 142.79s-89.24 59.04-142.78 58.82H265.61c-29.75-0.34-58.48 11.45-79.48 32.44-21.1 21.1-32.78 49.73-32.44 79.47-0.34 29.75 11.45 58.48 32.44 79.48 21.1 21.1 49.73 32.78 79.48 32.44h432.73c17.74-53.1 66.9-89.58 127.18-89.58 76.11 0 134.37 58.26 134.37 134.37 0 76.11-58.26 134.37-134.37 134.37-60.28-0.02-109.44-36.5-127.18-89.59z" p-id="924" fill="#687ea2"></path></svg>