<svg t="1726646580813" class="icon" viewBox="0 0 1028 1024" version="1.1" xmlns="http://www.w3.org/2000/svg" p-id="21654" width="200" height="200"><path d="M482.133333 908.8c-17.066667 0-34.133333-8.533333-51.2-21.333333l-388.266666-298.666667c-25.6-21.333333-42.666667-51.2-42.666667-81.066667s17.066667-59.733333 42.666667-81.066666l392.533333-298.666667c38.4-29.866667 64-21.333333 81.066667-17.066667 25.6 12.8 42.666667 42.666667 42.666666 85.333334v123.733333c256 17.066667 465.066667 298.666667 469.333334 537.6 0 21.333333-12.8 38.4-29.866667 42.666667-8.533333 0-34.133333 4.266667-55.466667-29.866667-72.533333-128-192-192-354.133333-192H554.666667V810.666667c0 38.4-17.066667 68.266667-46.933334 81.066666-8.533333 17.066667-17.066667 17.066667-25.6 17.066667z m4.266667-742.4c-4.266667 0-8.533333 0-17.066667 8.533333l-388.266666 298.666667c-12.8 12.8-21.333333 25.6-21.333334 38.4s8.533333 25.6 21.333334 38.4l388.266666 298.666667c4.266667 4.266667 12.8 8.533333 17.066667 4.266666 8.533333-4.266667 12.8-17.066667 12.8-34.133333v-187.733333h85.333333c162.133333 0 290.133333 64 375.466667 179.2-29.866667-204.8-213.333333-430.933333-430.933333-430.933334h-34.133334V200.533333c4.266667-21.333333-4.266667-29.866667-8.533333-34.133333z" fill="white" p-id="21655"></path></svg>