<?xml version="1.0" encoding="UTF-8"?>
<svg width="108px" height="26px" viewBox="0 0 108 26" version="1.1" xmlns="http://www.w3.org/2000/svg" xmlns:xlink="http://www.w3.org/1999/xlink">
    <title>艾融科技logo-蓝</title>
    <defs>
        <linearGradient x1="0%" y1="36.5962716%" x2="99.6489654%" y2="82.0045713%" id="linearGradient-1">
            <stop stop-color="#31C4FF" offset="0%"></stop>
            <stop stop-color="#3377FF" offset="100%"></stop>
        </linearGradient>
    </defs>
    <g id="艾融科技logo-蓝" stroke="none" stroke-width="1" fill="none" fill-rule="evenodd">
        <g id="2" transform="translate(0.000000, 1.000000)"></g>
        <g id="3" transform="translate(0.000000, 1.000000)">
            <g id="编组" transform="translate(1.000000, 0.000000)">
                <path d="M37.984,9.622 L37.984,7.606 L41.944,7.606 L41.944,9.622 L44.086,9.622 L44.086,7.606 L47.938,7.606 L47.938,5.536 L44.086,5.536 L44.086,3.772 L41.944,3.772 L41.944,5.536 L37.984,5.536 L37.984,3.772 L35.86,3.772 L35.86,5.536 L32.08,5.536 L32.08,7.606 L35.86,7.606 L35.86,9.622 L37.984,9.622 Z M32.782,20.53 C35.59,19.954 37.966,19.144 39.928,17.92 C41.764,19.144 44.05,19.954 46.93,20.422 C47.218,19.828 47.794,18.91 48.244,18.424 C45.652,18.082 43.528,17.452 41.818,16.516 C43.51,15.004 44.788,13.042 45.67,10.468 L43.42,9.928 C42.736,12.214 41.584,13.96 39.982,15.292 C38.38,13.924 37.246,12.178 36.526,10.018 L34.582,10.54 C35.446,12.988 36.598,14.968 38.146,16.498 C36.382,17.434 34.186,18.082 31.594,18.478 C31.99,19 32.566,19.99 32.782,20.53 Z M64.894,20.548 L66.442,20.152 C66.262,18.928 65.722,16.84 65.2,15.274 L63.76,15.562 C63.94,16.138 64.102,16.786 64.264,17.398 L63.274,17.56 L63.274,14.554 L65.722,14.554 L65.722,7.156 L63.274,7.156 L63.274,4.024 L61.42,4.024 L61.42,7.156 L59.008,7.156 L59.008,14.554 L61.42,14.554 L61.42,17.848 C60.43,18.01 59.512,18.136 58.756,18.226 L59.206,20.17 C60.754,19.864 62.716,19.504 64.66,19.144 C64.768,19.666 64.84,20.152 64.894,20.548 Z M58.702,6.22 L58.702,4.42 L49.756,4.42 L49.756,6.22 L58.702,6.22 Z M57.856,10.792 L57.856,6.886 L50.656,6.886 L50.656,10.792 L57.856,10.792 Z M55.948,9.352 L52.438,9.352 L52.438,8.308 L55.948,8.308 L55.948,9.352 Z M61.6,12.718 L60.502,12.718 L60.502,8.974 L61.6,8.974 L61.6,12.718 Z M64.138,12.718 L63.094,12.718 L63.094,8.974 L64.138,8.974 L64.138,12.718 Z M51.682,20.548 L51.682,12.988 L56.632,12.988 L56.632,18.478 C56.632,18.64 56.578,18.694 56.416,18.694 L56.1666667,18.6933333 C55.94,18.692 55.612,18.688 55.3,18.676 C55.498,19.144 55.696,19.81 55.75,20.278 C56.632,20.278 57.28,20.26 57.73,19.99 C58.234,19.72 58.342,19.27 58.342,18.496 L58.342,11.422 L50.062,11.422 L50.062,20.548 L51.682,20.548 Z M54.904,19.936 L54.904,16.912 L56.182,16.912 L56.182,15.616 L55.39,15.616 C55.714,15.022 56.038,14.32 56.38,13.708 L55.084,13.186 C54.868,13.906 54.454,14.878 54.112,15.616 L52.096,15.616 L52.096,16.912 L53.392,16.912 L53.392,19.936 L54.904,19.936 Z M52.888,15.598 L54.058,15.148 C53.914,14.644 53.536,13.87 53.158,13.294 L52.06,13.69 C52.42,14.284 52.744,15.076 52.888,15.598 Z M82.39,20.548 L82.39,16.012 L84.514,15.634 L84.172,13.636 L82.39,13.942 L82.39,3.754 L80.284,3.754 L80.284,14.302 L74.506,15.292 L74.848,17.326 L80.284,16.39 L80.284,20.548 L82.39,20.548 Z M72.436,20.566 L72.436,13.258 C72.868,13.978 73.3,14.734 73.516,15.238 L74.776,13.546 C74.434,13.132 72.958,11.44 72.436,10.936 L72.436,10.792 L74.812,10.792 L74.812,8.794 L72.436,8.794 L72.436,6.328 C73.264,6.148 74.056,5.932 74.758,5.662 L73.552,3.916 C72.058,4.528 69.808,5.086 67.756,5.392 C67.99,5.86 68.26,6.562 68.332,7.048 C68.998,6.976 69.664,6.868 70.366,6.76 L70.366,8.794 L67.648,8.794 L67.648,10.792 L70.078,10.792 C69.43,12.538 68.422,14.464 67.414,15.616 C67.738,16.156 68.206,17.038 68.404,17.65 C69.106,16.75 69.772,15.472 70.366,14.086 L70.366,20.566 L72.436,20.566 Z M78.34,8.758 L79.834,7.426 C79.294,6.634 78.034,5.572 77.062,4.834 L75.658,6.058 C76.666,6.832 77.836,7.984 78.34,8.758 Z M77.872,13.51 L79.33,12.142 C78.736,11.368 77.404,10.252 76.378,9.532 L75.01,10.756 C76.054,11.566 77.314,12.718 77.872,13.51 Z M101.29,20.584 C101.596,20.026 102.208,19.162 102.658,18.73 C101.056,18.334 99.67,17.74 98.5,16.912 C100.012,15.4 101.164,13.438 101.848,10.936 L100.48,10.36 L100.102,10.45 L97.942,10.45 L97.942,8.29 L101.974,8.29 L101.974,6.31 L97.942,6.31 L97.942,3.736 L95.818,3.736 L95.818,6.31 L91.948,6.31 L91.948,8.29 L95.818,8.29 L95.818,10.45 L92.272,10.45 L92.272,12.376 L93.208,12.376 L92.668,12.538 C93.316,14.194 94.162,15.616 95.224,16.822 C93.964,17.632 92.506,18.208 90.922,18.586 C91.318,19.054 91.84,19.954 92.074,20.53 C93.82,20.008 95.404,19.288 96.808,18.316 C98.05,19.324 99.544,20.062 101.29,20.584 Z M86.422,20.458 C87.682,20.458 88.546,20.404 89.14,20.08 C89.752,19.738 89.95,19.234 89.95,18.19 L89.95,13.888 C90.598,13.726 91.246,13.546 91.876,13.366 L91.606,11.404 L89.95,11.818 L89.95,9.154 L91.714,9.154 L91.714,7.174 L89.95,7.174 L89.95,3.754 L87.826,3.754 L87.826,7.174 L85.756,7.174 L85.756,9.154 L87.826,9.154 L87.826,12.34 C86.962,12.556 86.188,12.736 85.522,12.862 L86.08,14.896 L87.826,14.464 L87.826,18.172 C87.826,18.442 87.754,18.532 87.484,18.532 L87.0547588,18.5311345 C86.7180331,18.5296198 86.2567273,18.5254545 85.81,18.514 C86.062,19.072 86.332,19.918 86.422,20.458 Z M96.88,15.562 C95.98,14.644 95.26,13.564 94.756,12.376 L99.13,12.376 C98.59,13.6 97.816,14.662 96.88,15.562 Z" id="艾融科技" fill="#000000" fill-rule="nonzero"></path>
                <g id="形状结合-2" fill="url(#linearGradient-1)">
                    <path d="M15.2680389,19.8458984 L17.4712087,20.7630097 L18.7888043,23.110093 L15.2931676,23.110093 L15.2680389,19.8458984 Z M3.63859028,21.445587 L4.4186465,23.110093 L1.97037406,23.110093 L1.80045835,23.1031015 C1.47502319,23.0761218 1.17922323,22.9722818 0.92569915,22.8129399 L0.778758929,22.7108454 L3.63859028,21.445587 Z M10.4072476,20.4979503 L14.3749319,23.110093 L9.73422704,23.110093 L10.4072476,20.4979503 Z M7.82444974,21.7444886 L8.98317839,23.110093 L5.43065082,23.110093 L7.82444974,21.7444886 Z M21.4296735,19.4762768 L24.4612454,22.7521081 L24.3221517,22.8422101 C24.0831017,22.9829112 23.8085765,23.0751403 23.5084917,23.1019749 L23.325453,23.110093 L20.5329687,23.110093 L21.4296735,19.4762768 Z M20.9611676,19.2631049 L20.098586,22.7588541 L18.1898768,19.3590659 L20.9611676,19.2631049 Z M6.08011677,19.5672908 L7.46224866,21.1962681 L5.13720217,22.5226335 L5.57197839,20.5654097 L6.08011677,19.5672908 Z M9.80303569,20.5081254 L9.29354812,22.4856432 L8.32910271,21.3489514 L9.80303569,20.5081254 Z M23.9143741,18.1547459 L25.0411719,20.1793168 L25.1178384,20.3299752 C25.4421836,21.0382732 25.3025223,21.8128294 24.8683641,22.3640725 L24.7708843,22.4786724 L21.7273946,19.0511135 L23.8975654,18.1643027 L23.9143741,18.1547459 Z M12.5553816,18.8744822 L14.2858292,22.2610032 L10.7689989,19.9457384 L12.5553816,18.8744822 Z M4.91025731,20.9517838 L4.62968217,22.2150746 L4.18748542,21.2715416 L4.91025731,20.9517838 Z M1.83326271,17.3120086 L2.49340974,18.7207308 L0.255554605,22.1073081 L0.182396227,21.9642882 C-0.0423085783,21.4778458 -0.072911281,20.8986044 0.166714245,20.3553602 L0.246784875,20.1935957 L1.83326271,17.3120086 Z M2.69455136,19.4106162 L3.43469406,20.9899546 L0.914015145,22.1050595 L2.69455136,19.4106162 Z M13.2787157,19.0546551 L14.7098681,19.6852324 L14.7290941,21.8931243 L13.2787157,19.0546551 Z M6.6640346,18.4203114 L9.65018379,19.9481557 L7.95908758,20.9128259 L6.35658812,19.0242422 L6.6640346,18.4203114 Z M4.00540109,17.4268584 L4.95854704,20.3156973 L3.94890379,20.7623914 L3.05782055,18.8609341 L4.00540109,17.4268584 Z M15.4361254,17.1380195 L16.941933,19.82032 L13.279053,18.440493 L15.4361254,17.1380195 Z M4.50021623,17.1323978 L6.16354163,18.1643027 L5.68587244,19.1026076 L5.3608865,19.7409989 L4.50021623,17.1323978 Z M9.3870919,17.3397795 L12.0585427,18.516947 L10.3681211,19.5307503 L9.3870919,17.3397795 Z M8.55295569,16.8168562 L8.56067136,16.8603957 L8.5755546,16.9029232 L9.6581665,19.3207265 L6.91908758,17.9193686 L7.43009298,16.9155719 L7.44908704,16.8668254 L7.45825731,16.8168562 L8.55295569,16.8168562 Z M19.3745211,16.1369211 L17.9050854,18.848173 L16.8191568,16.892973 L19.3745211,16.1369211 Z M21.8922206,15.4898162 L21.0871481,18.752493 L18.4836065,18.8426638 L20.0565362,15.940333 L21.8922206,15.4898162 Z M22.4187978,15.467667 L23.6676973,17.7115935 L21.6629708,18.5308324 L22.4187978,15.467667 Z M3.73472001,16.8168562 L2.77814488,18.2643114 L2.10265082,16.8228151 L2.10591136,16.8168562 L3.73472001,16.8168562 Z M12.171706,16.8168562 L12.1720011,16.8203978 L12.1723806,16.8239395 L12.326413,18.0206703 L9.59447352,16.8168562 L12.171706,16.8168562 Z M14.8934703,16.8168562 L12.8927351,18.0166789 L12.7383092,16.8168562 L14.8934703,16.8168562 Z M6.84960433,16.8168562 L6.4185946,17.66336 L4.76403893,16.8168562 L6.84960433,16.8168562 Z M17.4163978,13.0779719 L16.5005233,16.3192865 L15.4992562,14.5166011 L17.4163978,13.0779719 Z M17.9487092,13.0522249 L19.4989276,15.5725103 L17.0463827,16.298093 L17.9487092,13.0522249 Z M4.33775136,12.8666551 L5.92546596,13.5506378 L5.85963677,15.4513081 L2.9290292,15.4513081 L3.11431785,15.0971459 L4.33775136,12.8666551 Z M6.4768346,13.6641384 L10.2845838,13.6981492 L9.32457947,15.4513081 L6.31515677,15.4513081 L6.4768346,13.6641384 Z M21.2361211,13.3425816 L22.1112389,14.9150616 L20.3312649,15.3519178 L21.2361211,13.3425816 Z M19.327187,9.91277405 L20.9294054,12.7914941 L20.0162292,14.8193254 L19.327187,9.91277405 Z M18.7800908,9.65507892 L19.4685708,14.5574141 L18.1336043,12.3871308 L18.0485492,12.1960519 L17.2459503,9.87668324 L18.7800908,9.65507892 Z M14.2027416,12.1822789 L17.2184043,12.5934443 L15.2548281,14.0765405 L14.2027416,12.1822789 Z M12.0353254,10.5010768 L10.5705557,13.1759568 L7.30366271,13.1176043 L12.0353254,10.5010768 Z M5.71735352,10.3514292 L5.91956325,12.9360259 L4.6093319,12.3715589 L5.71735352,10.3514292 Z M6.2636065,10.1263395 L11.1797708,10.3686876 L6.48256866,12.9243892 L6.2636065,10.1263395 Z M16.7360692,9.95032649 L17.4866681,12.119373 L13.9137341,11.6619978 L13.5741319,11.0505341 L13.9845665,10.3078616 L16.7360692,9.95032649 Z M14.6480303,5.71078054 L14.5251978,5.95408432 L12.3744778,9.88168649 L10.9430443,7.2401427 L14.6480303,5.71078054 Z M10.4394033,7.49064216 L11.7080908,9.83187892 L6.90284109,9.59504 L10.4394033,7.49064216 Z M16.1205016,8.17175784 L16.5675892,9.46355027 L14.2675027,9.79584432 L14.4471697,9.47080216 L16.1205016,8.17175784 Z M18.0309535,7.58373622 L18.9062962,9.1564973 L17.0774703,9.38985081 L16.5733233,7.93317622 L17.9223438,7.592 L18.0309535,7.58373622 Z M7.68351569,6.76697081 L7.7083492,6.77685081 L7.73461623,6.78411676 L9.78780109,7.22423351 L6.29160217,9.30457081 L7.68351569,6.76697081 Z M15.9912043,6.67685622 L15.9912043,7.63163243 L15.0671222,8.34900757 L15.9912043,6.67685622 Z M16.7559697,5.29298162 L17.7669622,7.10938378 L16.4971503,7.43060324 L16.4971503,5.76131892 L16.7559697,5.29298162 Z M9.34313082,3.74118919 L10.1548368,6.72790054 L7.9626292,6.25810162 L9.34313082,3.74118919 Z M9.94588109,3.81556324 L14.081427,5.33649297 L10.7346508,6.71789405 L9.94588109,3.81556324 Z M13.7897773,2.93853405 L15.645587,3.89021838 L15.012986,5.03494919 L13.7897773,2.93853405 Z M12.9327611,2.58532757 L14.2178638,4.78759784 L10.4014573,3.38404757 L12.9327611,2.58532757 Z M13.091066,0.0710572973 L13.2478962,0.12136495 C13.6094542,0.254302344 13.9377643,0.496116128 14.1783921,0.846938553 L14.2759914,1.00396541 L15.4996497,3.18363676 L13.3241384,2.06802595 L13.091066,0.0710572973 Z M12.5167611,-1.66977543e-13 L12.7562422,2.05155459 L9.74951785,3.00037189 L10.8382573,1.01548973 C11.2042811,0.353094054 11.8572324,0.0143351351 12.5167611,-1.66977543e-13 Z" id="形状结合"></path>
                </g>
            </g>
        </g>
    </g>
</svg>